# xmcd CD database file
#
# Track frame offsets:
#	150
#	16867
#	35480
#	55617
#	73487
#	95012
#	112875
#	132925
#	155337
#	179987
#	200087
#
# Disc length: 2919 seconds
#
# Revision: 0
# Processed by: cddbd v1.5.1PL2 Copyright (c) Steve Scherf et al.
# Submitted via: CDex 1.50Beta5
#
DISCID=9e0b650b
DTITLE=Pepe Ahlqvist and H.A.R.P. - Honey hush!
DYEAR=1992
DGENRE=Blues
TTITLE0=Burn, burn, burn
TTITLE1=Bye, bye
TTITLE2=Better treat her well
TTITLE3=Don't hurt me
TTITLE4=It ain't easy lovin' you
TTITLE5=Honey hush!
TTITLE6=Coming home
TTITLE7=No more affection
TTITLE8=No easy way out
TTITLE9=Breakin' up somebody's home
TTITLE10=Millhill mob II
EXTD=YEAR: 1992
EXTT0=
EXTT1=
EXTT2=
EXTT3=
EXTT4=
EXTT5=
EXTT6=
EXTT7=
EXTT8=
EXTT9=
EXTT10=
PLAYORDER=
